<?xml version="1.0" encoding="UTF-8" standalone="no"?>
<svg
   xmlns:dc="http://purl.org/dc/elements/1.1/"
   xmlns:cc="http://creativecommons.org/ns#"
   xmlns:rdf="http://www.w3.org/1999/02/22-rdf-syntax-ns#"
   xmlns:svg="http://www.w3.org/2000/svg"
   xmlns="http://www.w3.org/2000/svg"
   xmlns:sodipodi="http://sodipodi.sourceforge.net/DTD/sodipodi-0.dtd"
   xmlns:inkscape="http://www.inkscape.org/namespaces/inkscape"
   id="Capa_1"
   enable-background="new 0 0 479.058 479.058"
   height="512"
   viewBox="0 0 479.058 479.058"
   width="512"
   version="1.1"
   sodipodi:docname="mail-icon.svg"
   inkscape:version="0.92.3 (2405546, 2018-03-11)">
  <metadata
     id="metadata9">
    <rdf:RDF>
      <cc:Work
         rdf:about="">
        <dc:format>image/svg+xml</dc:format>
        <dc:type
           rdf:resource="http://purl.org/dc/dcmitype/StillImage" />
      </cc:Work>
    </rdf:RDF>
  </metadata>
  <defs
     id="defs7" />
  <sodipodi:namedview
     pagecolor="#ffffff"
     bordercolor="#666666"
     borderopacity="1"
     objecttolerance="10"
     gridtolerance="10"
     guidetolerance="10"
     inkscape:pageopacity="0"
     inkscape:pageshadow="2"
     inkscape:window-width="2560"
     inkscape:window-height="1387"
     id="namedview5"
     showgrid="false"
     inkscape:zoom="0.4609375"
     inkscape:cx="256"
     inkscape:cy="256"
     inkscape:window-x="-8"
     inkscape:window-y="22"
     inkscape:window-maximized="1"
     inkscape:current-layer="Capa_1" />
  <path
     d="m434.146 59.882h-389.234c-24.766 0-44.912 20.146-44.912 44.912v269.47c0 24.766 20.146 44.912 44.912 44.912h389.234c24.766 0 44.912-20.146 44.912-44.912v-269.47c0-24.766-20.146-44.912-44.912-44.912zm0 29.941c2.034 0 3.969.422 5.738 1.159l-200.355 173.649-200.356-173.649c1.769-.736 3.704-1.159 5.738-1.159zm0 299.411h-389.234c-8.26 0-14.971-6.71-14.971-14.971v-251.648l199.778 173.141c2.822 2.441 6.316 3.655 9.81 3.655s6.988-1.213 9.81-3.655l199.778-173.141v251.649c-.001 8.26-6.711 14.97-14.971 14.97z"
     id="path2" />
  <path
     style="opacity:1;fill:#ffffff;fill-opacity:1;stroke:none;stroke-width:0.4338983;stroke-linecap:round;stroke-linejoin:round;stroke-miterlimit:4;stroke-dasharray:none;stroke-opacity:1;paint-order:normal"
     d="m 38.301387,410.34945 -5.325116,-5.3251 V 269.11785 133.21136 l 13.36447,11.60449 c 192.499859,167.14937 202.349939,175.4011 209.376079,175.4011 8.35989,0 1.48979,5.5874 127.63233,-103.80237 l 95.45763,-82.78007 0.56923,132.88444 c 0.39168,91.43648 -0.16163,134.65754 -1.77375,138.56912 -1.28864,3.12656 -4.76362,6.78757 -7.72216,8.13559 -3.87979,1.76774 -64.03668,2.45092 -215.81639,2.45092 H 43.626502 Z"
     id="path819"
     inkscape:connector-curvature="0"
     transform="scale(0.93566016)" />
  <path
     style="opacity:1;fill:#ffffff;fill-opacity:1;stroke:none;stroke-width:0.4338983;stroke-linecap:round;stroke-linejoin:round;stroke-miterlimit:4;stroke-dasharray:none;stroke-opacity:1;paint-order:normal"
     d="M 149.8252,189.28944 44.301243,97.844068 150.53253,97.281155 c 58.42721,-0.309601 153.68446,-0.309601 211.68276,0 l 105.45148,0.562913 -103.98933,90.138352 c -57.19411,49.5761 -104.96558,90.72652 -106.1588,91.44537 -1.19322,0.71886 -49.65527,-39.8434 -107.69344,-90.13835 z"
     id="path821"
     inkscape:connector-curvature="0"
     transform="scale(0.93566016)" />
</svg>
