<?xml version="1.0" encoding="UTF-8" standalone="no"?>
<svg
   xmlns:dc="http://purl.org/dc/elements/1.1/"
   xmlns:cc="http://creativecommons.org/ns#"
   xmlns:rdf="http://www.w3.org/1999/02/22-rdf-syntax-ns#"
   xmlns:svg="http://www.w3.org/2000/svg"
   xmlns="http://www.w3.org/2000/svg"
   xmlns:xlink="http://www.w3.org/1999/xlink"
   xmlns:sodipodi="http://sodipodi.sourceforge.net/DTD/sodipodi-0.dtd"
   xmlns:inkscape="http://www.inkscape.org/namespaces/inkscape"
   width="269.9444"
   height="274.4194"
   viewBox="0 0 269.9444 274.4194"
   version="1.1"
   id="svg1890"
   sodipodi:docname="Logo Colorida Gradiente Sem Letras.svg"
   inkscape:export-filename="C:\Users\Fernando Paiva\Desktop\Logo.png"
   inkscape:export-xdpi="600"
   inkscape:export-ydpi="600"
   inkscape:version="0.92.3 (2405546, 2018-03-11)">
  <metadata
     id="metadata1896">
    <rdf:RDF>
      <cc:Work
         rdf:about="">
        <dc:format>image/svg+xml</dc:format>
        <dc:type
           rdf:resource="http://purl.org/dc/dcmitype/StillImage" />
        <dc:title>Produce by Acme CAD Converter</dc:title>
      </cc:Work>
    </rdf:RDF>
  </metadata>
  <defs
     id="defs1894">
    <linearGradient
       inkscape:collect="always"
       id="linearGradient1865">
      <stop
         style="stop-color:#d900b7;stop-opacity:1;"
         offset="0"
         id="stop1861" />
      <stop
         style="stop-color:#d900b7;stop-opacity:0.54901963"
         offset="1"
         id="stop1863" />
    </linearGradient>
    <linearGradient
       inkscape:collect="always"
       id="linearGradient1857">
      <stop
         style="stop-color:#d900b7;stop-opacity:1;"
         offset="0"
         id="stop1853" />
      <stop
         style="stop-color:#d900b7;stop-opacity:0.54901963"
         offset="1"
         id="stop1855" />
    </linearGradient>
    <linearGradient
       inkscape:collect="always"
       id="linearGradient1849">
      <stop
         style="stop-color:#d900b7;stop-opacity:1;"
         offset="0"
         id="stop1845" />
      <stop
         style="stop-color:#d900b7;stop-opacity:0.54773867"
         offset="1"
         id="stop1847" />
    </linearGradient>
    <linearGradient
       inkscape:collect="always"
       id="linearGradient1866">
      <stop
         style="stop-color:#219d19;stop-opacity:1;"
         offset="0"
         id="stop1862" />
      <stop
         style="stop-color:#219d19;stop-opacity:0.54901963"
         offset="1"
         id="stop1864" />
    </linearGradient>
    <filter
       inkscape:collect="always"
       style="color-interpolation-filters:sRGB"
       id="filter4084"
       x="-0.010847292"
       width="1.0216945"
       y="-0.013426828"
       height="1.0268537">
      <feGaussianBlur
         inkscape:collect="always"
         stdDeviation="1.49435"
         id="feGaussianBlur4086" />
    </filter>
    <linearGradient
       inkscape:collect="always"
       xlink:href="#linearGradient1866"
       id="linearGradient1868"
       x1="499.46796"
       y1="244.22389"
       x2="312.72797"
       y2="243.3239"
       gradientUnits="userSpaceOnUse" />
    <linearGradient
       inkscape:collect="always"
       xlink:href="#linearGradient1866"
       id="linearGradient1819"
       gradientUnits="userSpaceOnUse"
       x1="499.46796"
       y1="244.22389"
       x2="312.72797"
       y2="243.3239" />
    <linearGradient
       inkscape:collect="always"
       xlink:href="#linearGradient1866"
       id="linearGradient1821"
       gradientUnits="userSpaceOnUse"
       x1="499.46796"
       y1="244.22389"
       x2="312.72797"
       y2="243.3239" />
    <linearGradient
       inkscape:collect="always"
       xlink:href="#linearGradient1866"
       id="linearGradient1823"
       gradientUnits="userSpaceOnUse"
       x1="499.46796"
       y1="244.22389"
       x2="312.72797"
       y2="243.3239" />
    <linearGradient
       inkscape:collect="always"
       xlink:href="#linearGradient1866"
       id="linearGradient1825"
       gradientUnits="userSpaceOnUse"
       x1="499.46796"
       y1="244.22389"
       x2="312.72797"
       y2="243.3239" />
    <linearGradient
       inkscape:collect="always"
       xlink:href="#linearGradient1866"
       id="linearGradient1827"
       gradientUnits="userSpaceOnUse"
       x1="499.46796"
       y1="244.22389"
       x2="312.72797"
       y2="243.3239" />
    <linearGradient
       inkscape:collect="always"
       xlink:href="#linearGradient1866"
       id="linearGradient1829"
       gradientUnits="userSpaceOnUse"
       x1="499.46796"
       y1="244.22389"
       x2="312.72797"
       y2="243.3239" />
    <linearGradient
       inkscape:collect="always"
       xlink:href="#linearGradient1849"
       id="linearGradient1851"
       x1="228.5757"
       y1="364.74158"
       x2="204.58937"
       y2="364.74158"
       gradientUnits="userSpaceOnUse"
       gradientTransform="matrix(1.4313263,0,0,1.4313263,-133.56619,-139.59464)" />
    <linearGradient
       inkscape:collect="always"
       xlink:href="#linearGradient1857"
       id="linearGradient1859"
       x1="201.8058"
       y1="336.41641"
       x2="178.37799"
       y2="336.47238"
       gradientUnits="userSpaceOnUse"
       gradientTransform="matrix(1.4313263,0,0,1.4313263,-133.56619,-139.59464)" />
    <linearGradient
       inkscape:collect="always"
       xlink:href="#linearGradient1865"
       id="linearGradient1867"
       x1="156.24037"
       y1="413.02881"
       x2="132.66978"
       y2="413.07867"
       gradientUnits="userSpaceOnUse"
       gradientTransform="matrix(1.4313263,0,0,1.4313263,-133.56619,-139.59464)" />
  </defs>
  <sodipodi:namedview
     pagecolor="#ffffff"
     bordercolor="#666666"
     borderopacity="1"
     objecttolerance="10"
     gridtolerance="10"
     guidetolerance="10"
     inkscape:pageopacity="0"
     inkscape:pageshadow="2"
     inkscape:window-width="1920"
     inkscape:window-height="1027"
     id="namedview1892"
     showgrid="false"
     inkscape:pagecheckerboard="true"
     inkscape:zoom="2.2250294"
     inkscape:cx="122.3128"
     inkscape:cy="109.39574"
     inkscape:window-x="-8"
     inkscape:window-y="22"
     inkscape:window-maximized="1"
     inkscape:current-layer="layer3"
     fit-margin-top="0"
     fit-margin-left="0"
     fit-margin-right="0"
     fit-margin-bottom="0"
     units="px" />
  <title
     id="title2">Produce by Acme CAD Converter</title>
  <desc
     id="desc4">Produce by Acme CAD Converter</desc>
  <g
     inkscape:groupmode="layer"
     id="layer3"
     inkscape:label="Fundo"
     transform="translate(-17.347641,-311.70919)"
     sodipodi:insensitive="true">
    <ellipse
       style="opacity:1;fill:#ffffff;fill-opacity:1;stroke:none;stroke-width:0.24724004;stroke-linecap:round;stroke-linejoin:round;stroke-miterlimit:4;stroke-dasharray:none;stroke-opacity:1;paint-order:normal"
       id="path887"
       cx="152.12886"
       cy="449.05133"
       rx="133.02423"
       ry="133.03236" />
  </g>
  <g
     inkscape:groupmode="layer"
     id="layer1"
     inkscape:label="Cores"
     style="display:inline"
     transform="translate(-17.347641,-311.70919)"
     sodipodi:insensitive="true">
    <path
       style="opacity:1;fill:url(#linearGradient1867);fill-opacity:1;stroke:#000000;stroke-width:0.45487064;stroke-linecap:round;stroke-linejoin:round;stroke-miterlimit:4;stroke-dasharray:none;stroke-opacity:1;paint-order:normal"
       d="m 66.933083,467.63272 c -4.62516,-1.94164 -7.41107,-4.57428 -9.45738,-8.93706 -1.02726,-2.19016 -1.18316,-3.12192 -1.18316,-7.07125 0,-3.98658 0.15111,-4.87114 1.22277,-7.15775 1.55996,-3.32851 4.86088,-6.62945 8.33531,-8.33531 2.46224,-1.20892 3.15966,-1.33715 7.27213,-1.33715 3.98657,0 4.87113,0.15111 7.15775,1.22277 3.33345,1.56228 6.88742,5.11625 8.44969,8.44969 1.0722,2.28776 1.22278,3.17036 1.22278,7.16731 0,4.22341 -0.10864,4.77887 -1.4783,7.56112 -1.75417,3.56322 -4.61165,6.35904 -8.22176,8.04436 -3.7303,1.74143 -9.6893,1.91737 -13.31983,0.39327 z"
       id="path2707"
       inkscape:connector-curvature="0" />
    <path
       style="opacity:1;fill:url(#linearGradient1851);fill-opacity:1;stroke:#000000;stroke-width:0.45487064;stroke-linecap:round;stroke-linejoin:round;stroke-miterlimit:4;stroke-dasharray:none;stroke-opacity:1;paint-order:normal"
       d="m 170.91993,398.74837 c -13.4585,-4.83157 -15.71131,-22.90132 -3.81385,-30.59102 8.42451,-5.44503 19.72385,-2.54528 24.4208,6.26711 4.64832,8.72113 0.98862,19.51781 -8.01833,23.65541 -3.42395,1.57288 -9.21308,1.8803 -12.58862,0.6685 z"
       id="path2709"
       inkscape:connector-curvature="0" />
    <path
       style="opacity:1;fill:url(#linearGradient1859);fill-opacity:1;stroke:#000000;stroke-width:0.45487064;stroke-linecap:round;stroke-linejoin:round;stroke-miterlimit:4;stroke-dasharray:none;stroke-opacity:1;paint-order:normal"
       d="m 135.33527,359.03364 c -5.10295,-1.00715 -9.65441,-4.57037 -12.04913,-9.43292 -1.36982,-2.7815 -1.49223,-3.38539 -1.49223,-7.36202 0,-3.81138 0.1571,-4.67208 1.30737,-7.16233 1.60504,-3.4748 5.16059,-6.97259 8.81229,-8.66914 2.21643,-1.02972 3.24297,-1.21731 6.71055,-1.22627 3.66733,-0.01 4.41139,0.13984 7.1418,1.43336 3.73864,1.77113 6.6068,4.56129 8.36055,8.13311 1.21333,2.4712 1.32725,3.1164 1.32083,7.4806 -0.006,4.31778 -0.13025,5.02442 -1.29076,7.36335 -1.42229,2.86652 -5.07704,6.59726 -7.84743,8.01061 -1.79541,0.91595 -6.32626,1.95585 -8.10968,1.86128 -0.51695,-0.0275 -1.80583,-0.22074 -2.86416,-0.42963 z"
       id="path2711"
       inkscape:connector-curvature="0" />
    <g
       id="g1844"
       style="fill:url(#linearGradient1868);fill-opacity:1"
       transform="matrix(1.4313263,0,0,1.4313263,-429.10009,100.99364)">
      <g
         style="fill:url(#linearGradient1823);fill-opacity:1"
         id="g1934">
        <path
           style="opacity:1;fill:url(#linearGradient1819);fill-opacity:1;stroke:#000000;stroke-width:0.31779662;stroke-linecap:round;stroke-linejoin:round;stroke-miterlimit:4;stroke-dasharray:none;stroke-opacity:1;paint-order:normal"
           d="m 407.69735,335.30282 c 0.0881,-0.39328 1.85017,-13.26583 3.9157,-28.60567 l 3.75551,-27.89063 21.43469,-19.10941 c 14.71435,-13.1181 21.55322,-19.02038 21.81273,-18.82547 2.92076,2.19364 5.15289,2.9852 8.41804,2.9852 4.81321,0 8.52162,-2.11687 11.19587,-6.39093 1.86079,-2.97396 2.00649,-8.35767 0.31859,-11.77258 -2.78038,-5.62523 -8.75254,-8.3587 -14.8133,-6.78007 -3.1765,0.82737 -6.05717,3.01223 -7.74703,5.87579 -1.96641,3.33218 -2.17658,8.36552 -0.49128,11.76571 l 0.91193,1.8399 -20.03167,17.84622 c -18.51243,16.49274 -20.03713,17.77845 -20.10362,16.95249 -0.0396,-0.49155 1.61403,-13.26183 3.67468,-28.37841 l 3.74663,-27.48467 2.92621,-0.54188 c 4.74518,-0.87872 8.97636,-3.25058 11.87842,-6.65866 7.00547,-8.22698 6.63055,-20.2599 -0.86592,-27.7912 -2.4707,-2.48218 -5.19111,-4.15319 -8.5762,-5.26791 -3.07897,-1.01392 -8.86386,-1.02316 -11.90374,-0.019 -1.12862,0.37281 -2.08725,0.64262 -2.13029,0.59958 -0.043,-0.043 0.26703,-1.0295 0.68904,-2.19213 2.67702,-7.37511 0.85863,-15.75883 -4.60461,-21.22967 -1.13938,-1.14096 -2.85814,-2.5453 -3.81947,-3.12076 l -1.74788,-1.0463 4.60805,0.19643 c 38.07466,1.623 71.3669,26.48708 83.83674,62.61289 5.74055,16.63066 6.59786,34.74624 2.45145,51.80085 -5.20196,21.39626 -17.13523,39.55917 -34.67195,52.77208 -11.6856,8.80443 -25.82453,14.85599 -40.33446,17.26342 -3.75338,0.62274 -10.42666,1.30984 -12.72156,1.30984 -1.05049,0 -1.15495,-0.0739 -1.0113,-0.71504 z"
           id="path2701"
           inkscape:connector-curvature="0" />
        <path
           style="opacity:1;fill:url(#linearGradient1821);fill-opacity:1;stroke:#000000;stroke-width:0.31779662;stroke-linecap:round;stroke-linejoin:round;stroke-miterlimit:4;stroke-dasharray:none;stroke-opacity:1;paint-order:normal"
           d="m 400.21728,335.79879 c -0.52764,-0.13788 -0.55603,-3.90994 -0.55394,-73.61249 l 0.002,-73.46717 2.46073,-0.68519 c 1.3534,-0.37686 2.4915,-0.65594 2.5291,-0.62019 0.0376,0.0358 -0.28208,0.93267 -0.71043,1.99314 -0.42834,1.06047 -0.94302,3.27017 -1.14373,4.91044 -1.18781,9.70705 4.784,18.91043 14.18818,21.86591 l 1.59731,0.50199 -7.20815,53.23093 c -3.96448,29.27702 -7.60003,56.12686 -8.07899,59.66632 l -0.87086,6.43538 -0.82763,-0.0369 c -0.4552,-0.0203 -1.0779,-0.10226 -1.38378,-0.1822 z"
           id="path2703"
           inkscape:connector-curvature="0" />
      </g>
      <g
         style="fill:url(#linearGradient1829);fill-opacity:1"
         id="g1938">
        <path
           style="opacity:1;fill:url(#linearGradient1825);fill-opacity:1;stroke:#000000;stroke-width:0.31779662;stroke-linecap:round;stroke-linejoin:round;stroke-miterlimit:4;stroke-dasharray:none;stroke-opacity:1;paint-order:normal"
           d="m 383.29461,333.15744 c -32.2422,-8.39391 -57.20689,-32.53744 -66.41788,-64.23325 -2.79226,-9.60839 -3.80037,-17.52424 -3.55667,-27.92752 0.24489,-10.45425 1.53919,-18.02386 4.67604,-27.34755 4.66694,-13.87159 11.56302,-25.10386 21.89761,-35.6666 l 3.66419,-3.74508 0.38839,2.10438 c 0.76473,4.1435 2.89197,7.07041 6.38877,8.79042 1.97191,0.96995 2.35074,1.04452 5.30636,1.04452 2.98404,0 3.31189,-0.0663 5.24853,-1.06114 l 2.06568,-1.06114 15.49259,15.67331 15.49258,15.67332 -0.0215,58.16325 c -0.0139,37.49772 -0.13016,57.93742 -0.32731,57.52765 -0.16818,-0.34957 -7.00356,-16.15201 -15.18972,-35.11652 l -14.88393,-34.48094 1.94322,-1.98106 c 2.33547,-2.38094 3.95614,-4.97147 4.9513,-7.91434 1.0109,-2.98941 1.2542,-8.61861 0.49944,-11.55587 -1.725,-6.71317 -6.75295,-12.15759 -13.51811,-14.63785 -1.80968,-0.66347 -2.61704,-0.75733 -6.51483,-0.75733 -4.87682,0 -6.58824,0.40937 -10.32839,2.47054 -2.7023,1.48923 -6.5998,5.61742 -8.00186,8.47549 -1.81291,3.69558 -2.25981,5.87806 -2.08236,10.16949 0.24407,5.90254 1.882,9.74914 5.85547,13.7513 3.89117,3.91925 7.95908,5.65703 13.76265,5.8793 2.59652,0.0994 4.17065,0.004 5.43681,-0.32835 l 1.78214,-0.46831 14.86996,34.51841 c 8.17847,18.98513 14.92865,34.62567 15.00038,34.75676 0.18164,0.33195 0.0494,0.30756 -3.87954,-0.71529 z"
           id="path2699"
           inkscape:connector-curvature="0" />
        <path
           style="opacity:1;fill:url(#linearGradient1827);fill-opacity:1;stroke:#000000;stroke-width:0.31779662;stroke-linecap:round;stroke-linejoin:round;stroke-miterlimit:4;stroke-dasharray:none;stroke-opacity:1;paint-order:normal"
           d="m 379.40237,196.53758 -14.36847,-14.58621 1.02654,-1.98967 c 0.9579,-1.85663 1.02655,-2.20445 1.02655,-5.20152 0,-2.98717 -0.0729,-3.3601 -1.04256,-5.33137 -1.25548,-2.5524 -3.53697,-4.72896 -5.86869,-5.59877 l -1.63456,-0.60975 1.73053,-1.00665 c 2.28101,-1.32686 7.50917,-3.84329 10.82945,-5.21245 3.43055,-1.41463 10.71183,-3.77711 11.25938,-3.65321 0.26666,0.0603 -0.17107,0.80051 -1.18428,2.00251 -1.93746,2.29844 -3.88222,6.2609 -4.4136,8.99273 -0.24037,1.23575 -0.32429,3.30223 -0.21941,5.40255 0.27812,5.56948 2.10387,9.54576 6.15334,13.4013 2.59709,2.47272 6.35929,4.53481 9.34542,5.12229 l 1.89879,0.37357 v 11.24043 c 0,6.18224 -0.0382,11.24043 -0.085,11.24043 -0.0467,0 -6.55079,-6.56379 -14.45345,-14.58621 z"
           id="path2705"
           inkscape:connector-curvature="0" />
      </g>
    </g>
  </g>
  <g
     inkscape:groupmode="layer"
     id="layer2"
     inkscape:label="Contorno"
     style="display:inline"
     transform="translate(-17.347641,-311.70919)"
     sodipodi:insensitive="true">
    <path
       inkscape:connector-curvature="0"
       style="fill:#000000;fill-opacity:1;stroke:#000000;stroke-width:0.2;stroke-linecap:round;stroke-linejoin:round;stroke-miterlimit:4;stroke-dasharray:none;stroke-opacity:1;filter:url(#filter4084)"
       d="m 205.95013,403.39274 0.19,-2.16 m 0,0 0.56,-2.09 m 0,0 0.92,-1.97 m 0,0 1.24,-1.78 m 0,0 1.54,-1.53 m 0,0 1.78,-1.25 m 0,0 1.96,-0.91 m 0,0 2.1,-0.57 m 0,0 2.16,-0.19 m 0,0 2.16,0.19 m 0,0 2.1,0.57 m 0,0 1.97,0.91 m 0,0 1.77,1.25 m 0,0 1.54,1.53 m 0,0 1.24,1.78 m 0,0 0.92,1.97 m 0,0 0.56,2.09 m 0,0 0.19,2.16 m 0,0 -0.19,2.17 m 0,0 -0.56,2.09 m 0,0 -0.92,1.97 m 0,0 -1.24,1.78 m 0,0 -1.54,1.53 m 0,0 -1.77,1.25 m 0,0 -1.97,0.91 m 0,0 -2.1,0.57 m 0,0 -2.16,0.18 m 0,0 -2.16,-0.18 m 0,0 -2.1,-0.57 m 0,0 -1.96,-0.91 m 0,0 -1.78,-1.25 m 0,0 -1.54,-1.53 m 0,0 -1.24,-1.78 m 0,0 -0.92,-1.97 m 0,0 -0.56,-2.09 m 0,0 -0.19,-2.17"
       id="path6"
       transform="matrix(1.4313263,0,0,1.4313263,-136.13933,-194.91708)" />
    <path
       inkscape:connector-curvature="0"
       style="fill:#000000;fill-opacity:1;stroke:#000000;stroke-width:0.2;stroke-linecap:round;stroke-linejoin:round;stroke-miterlimit:4;stroke-dasharray:none;stroke-opacity:1;filter:url(#filter4084)"
       d="m 133.75013,451.73274 0.19,-2.17 m 0,0 0.56,-2.09 m 0,0 0.92,-1.97 m 0,0 1.24,-1.78 m 0,0 1.54,-1.53 m 0,0 1.77,-1.25 m 0,0 1.97,-0.91 m 0,0 2.1,-0.56 m 0,0 2.16,-0.19 m 0,0 2.16,0.19 m 0,0 2.1,0.56 m 0,0 1.96,0.91 m 0,0 1.78,1.25 m 0,0 1.54,1.53 m 0,0 1.24,1.78 m 0,0 0.92,1.97 m 0,0 0.56,2.09 m 0,0 0.19,2.17 m 0,0 -0.19,2.16 m 0,0 -0.56,2.09 m 0,0 -0.92,1.97 m 0,0 -1.24,1.78 m 0,0 -1.54,1.53 m 0,0 -1.78,1.25 m 0,0 -1.96,0.92 m 0,0 -2.1,0.56 m 0,0 -2.16,0.19 m 0,0 -2.16,-0.19 m 0,0 -2.1,-0.56 m 0,0 -1.97,-0.92 m 0,0 -1.77,-1.25 m 0,0 -1.54,-1.53 m 0,0 -1.24,-1.78 m 0,0 -0.92,-1.97 m 0,0 -0.56,-2.09 m 0,0 -0.19,-2.16"
       id="path8"
       transform="matrix(1.4313263,0,0,1.4313263,-136.13933,-194.91708)" />
    <path
       inkscape:connector-curvature="0"
       style="fill:#000000;fill-opacity:1;stroke:#000000;stroke-width:0.2;stroke-linecap:round;stroke-linejoin:round;stroke-miterlimit:4;stroke-dasharray:none;stroke-opacity:1;filter:url(#filter4084)"
       d="m 179.54013,375.24274 0.19,-2.16 m 0,0 0.56,-2.1 m 0,0 0.92,-1.97 m 0,0 1.24,-1.78 m 0,0 1.54,-1.53 m 0,0 1.77,-1.24 m 0,0 1.97,-0.92 m 0,0 2.1,-0.56 m 0,0 2.16,-0.19 m 0,0 2.16,0.19 m 0,0 2.1,0.56 m 0,0 1.96,0.92 m 0,0 1.78,1.24 m 0,0 1.54,1.53 m 0,0 1.24,1.78 m 0,0 0.92,1.97 m 0,0 0.56,2.1 m 0,0 0.19,2.16 m 0,0 -0.19,2.16 m 0,0 -0.56,2.1 m 0,0 -0.92,1.96 m 0,0 -1.24,1.78 m 0,0 -1.54,1.53 m 0,0 -1.78,1.25 m 0,0 -1.96,0.92 m 0,0 -2.1,0.56 m 0,0 -2.16,0.19 m 0,0 -2.16,-0.19 m 0,0 -2.1,-0.56 m 0,0 -1.97,-0.92 m 0,0 -1.77,-1.25 m 0,0 -1.54,-1.53 m 0,0 -1.24,-1.78 m 0,0 -0.92,-1.96 m 0,0 -0.56,-2.1 m 0,0 -0.19,-2.16"
       id="path10"
       transform="matrix(1.4313263,0,0,1.4313263,-136.13933,-194.91708)" />
    <path
       inkscape:connector-curvature="0"
       style="fill:#000000;fill-opacity:1;stroke:#000000;stroke-width:0.2;stroke-linecap:round;stroke-linejoin:round;stroke-miterlimit:4;stroke-dasharray:none;stroke-opacity:1;filter:url(#filter4084)"
       d="m 152.86013,470.86274 30.42,70.54"
       id="path12"
       transform="matrix(1.4313263,0,0,1.4313263,-136.13933,-194.91708)" />
    <path
       inkscape:connector-curvature="0"
       style="fill:#000000;fill-opacity:1;stroke:#000000;stroke-width:0.2;stroke-linecap:round;stroke-linejoin:round;stroke-miterlimit:4;stroke-dasharray:none;stroke-opacity:1;filter:url(#filter4084)"
       d="m 139.58013,379.84274 -0.09,2.11 m 0,0 0.3,2.09 m 0,0 0.68,2 m 0,0 1.03,1.85 m 0,0 1.36,1.61 m 0,0 1.64,1.35 m 0,0 1.85,1.01 m 0,0 2.01,0.66 m 0,0 2.09,0.28 m 0,0 2.11,-0.11 m 0,0 2.06,-0.5 m 0,0 1.92,-0.87 m 0,0 1.73,-1.21"
       id="path14"
       transform="matrix(1.4313263,0,0,1.4313263,-136.13933,-194.91708)" />
    <path
       inkscape:connector-curvature="0"
       style="fill:#000000;fill-opacity:1;stroke:#000000;stroke-width:0.2;stroke-linecap:round;stroke-linejoin:round;stroke-miterlimit:4;stroke-dasharray:none;stroke-opacity:1;filter:url(#filter4084)"
       d="m 158.27013,390.11274 31.26,31.71"
       id="path16"
       transform="matrix(1.4313263,0,0,1.4313263,-136.13933,-194.91708)" />
    <path
       inkscape:connector-curvature="0"
       style="fill:#000000;fill-opacity:1;stroke:#000000;stroke-width:0.2;stroke-linecap:round;stroke-linejoin:round;stroke-miterlimit:4;stroke-dasharray:none;stroke-opacity:1;filter:url(#filter4084)"
       d="m 189.53013,421.82274 v 118.53"
       id="path18"
       transform="matrix(1.4313263,0,0,1.4313263,-136.13933,-194.91708)" />
    <path
       inkscape:connector-curvature="0"
       style="fill:#000000;fill-opacity:1;stroke:#000000;stroke-width:0.2;stroke-linecap:round;stroke-linejoin:round;stroke-miterlimit:4;stroke-dasharray:none;stroke-opacity:1;filter:url(#filter4084)"
       d="m 189.53013,540.35274 -31.22,-72.38"
       id="path20"
       transform="matrix(1.4313263,0,0,1.4313263,-136.13933,-194.91708)" />
    <path
       inkscape:connector-curvature="0"
       style="fill:#000000;fill-opacity:1;stroke:#000000;stroke-width:0.2;stroke-linecap:round;stroke-linejoin:round;stroke-miterlimit:4;stroke-dasharray:none;stroke-opacity:1;filter:url(#filter4084)"
       d="m 158.31013,467.97274 2.14,-1.84 m 0,0 1.86,-2.11 m 0,0 1.54,-2.35 m 0,0 1.21,-2.54 m 0,0 0.84,-2.69 m 0,0 0.47,-2.77 m 0,0 0.07,-2.82 m 0,0 -0.31,-2.79 m 0,0 -0.7,-2.73 m 0,0 -1.07,-2.6 m 0,0 -1.43,-2.43 m 0,0 -1.74,-2.21 m 0,0 -2.03,-1.94 m 0,0 -2.29,-1.65 m 0,0 -2.49,-1.31 m 0,0 -2.64,-0.96 m 0,0 -2.76,-0.57 m 0,0 -2.81,-0.2 m 0,0 -2.8,0.2 m 0,0 -2.76,0.59 m 0,0 -2.64,0.96 m 0,0 -2.49,1.32 m 0,0 -2.28,1.65 m 0,0 -2.02,1.95 m 0,0 -1.74,2.21 m 0,0 -1.42,2.44 m 0,0 -1.06,2.6 m 0,0 -0.7,2.73 m 0,0 -0.31,2.8 m 0,0 0.08,2.81 m 0,0 0.48,2.77 m 0,0 0.85,2.69 m 0,0 1.21,2.53 m 0,0 1.55,2.35 m 0,0 1.87,2.11 m 0,0 2.14,1.83 m 0,0 2.37,1.52 m 0,0 2.56,1.17 m 0,0 2.69,0.8 m 0,0 2.78,0.43 m 0,0 2.82,0.04 m 0,0 2.79,-0.36 m 0,0 2.72,-0.74"
       id="path22"
       transform="matrix(1.4313263,0,0,1.4313263,-136.13933,-194.91708)" />
    <path
       inkscape:connector-curvature="0"
       style="fill:#000000;fill-opacity:1;stroke:#000000;stroke-width:0.2;stroke-linecap:round;stroke-linejoin:round;stroke-miterlimit:4;stroke-dasharray:none;stroke-opacity:1;filter:url(#filter4084)"
       d="m 194.54013,542.92274 v -147.88"
       id="path24"
       transform="matrix(1.4313263,0,0,1.4313263,-136.13933,-194.91708)" />
    <path
       inkscape:connector-curvature="0"
       style="fill:#000000;fill-opacity:1;stroke:#000000;stroke-width:0.2;stroke-linecap:round;stroke-linejoin:round;stroke-miterlimit:4;stroke-dasharray:none;stroke-opacity:1;filter:url(#filter4084)"
       d="m 194.54013,395.04274 2.3,-0.43 m 0,0 2.22,-0.7 m 0,0 2.13,-0.95"
       id="path26"
       transform="matrix(1.4313263,0,0,1.4313263,-136.13933,-194.91708)" />
    <path
       inkscape:connector-curvature="0"
       style="fill:#000000;fill-opacity:1;stroke:#000000;stroke-width:0.2;stroke-linecap:round;stroke-linejoin:round;stroke-miterlimit:4;stroke-dasharray:none;stroke-opacity:1;filter:url(#filter4084)"
       d="m 201.19013,392.96274 -1.26,2.44 m 0,0 -0.91,2.59 m 0,0 -0.56,2.69 m 0,0 -0.18,2.75 m 0,0 0.19,2.74 m 0,0 0.56,2.69 m 0,0 0.93,2.59 m 0,0 1.27,2.43 m 0,0 1.59,2.25 m 0,0 1.88,2 m 0,0 2.13,1.73 m 0,0 2.35,1.42 m 0,0 2.53,1.09 m 0,0 2.64,0.74"
       id="path28"
       transform="matrix(1.4313263,0,0,1.4313263,-136.13933,-194.91708)" />
    <path
       inkscape:connector-curvature="0"
       style="fill:#000000;fill-opacity:1;stroke:#000000;stroke-width:0.2;stroke-linecap:round;stroke-linejoin:round;stroke-miterlimit:4;stroke-dasharray:none;stroke-opacity:1;filter:url(#filter4084)"
       d="m 214.35013,423.11274 -16.25,120.01"
       id="path30"
       transform="matrix(1.4313263,0,0,1.4313263,-136.13933,-194.91708)" />
    <path
       inkscape:connector-curvature="0"
       style="fill:#000000;fill-opacity:1;stroke:#000000;stroke-width:0.2;stroke-linecap:round;stroke-linejoin:round;stroke-miterlimit:4;stroke-dasharray:none;stroke-opacity:1;filter:url(#filter4084)"
       d="m 194.54013,542.92274 3.56,0.2"
       id="path32"
       transform="matrix(1.4313263,0,0,1.4313263,-136.13933,-194.91708)" />
    <path
       inkscape:connector-curvature="0"
       style="fill:#000000;fill-opacity:1;stroke:#000000;stroke-width:0.2;stroke-linecap:round;stroke-linejoin:round;stroke-miterlimit:4;stroke-dasharray:none;stroke-opacity:1;filter:url(#filter4084)"
       d="m 210.74013,482.20274 41.54,-37.02"
       id="path34"
       transform="matrix(1.4313263,0,0,1.4313263,-136.13933,-194.91708)" />
    <path
       inkscape:connector-curvature="0"
       style="fill:#000000;fill-opacity:1;stroke:#000000;stroke-width:0.2;stroke-linecap:round;stroke-linejoin:round;stroke-miterlimit:4;stroke-dasharray:none;stroke-opacity:1;filter:url(#filter4084)"
       d="m 253.60013,446.74274 1.67,1.4 m 0,0 1.88,1.08 m 0,0 2.04,0.73 m 0,0 2.14,0.38 m 0,0 2.17,-0.01 m 0,0 2.13,-0.38 m 0,0 2.04,-0.75 m 0,0 1.88,-1.09 m 0,0 1.65,-1.41 m 0,0 1.39,-1.66 m 0,0 1.08,-1.89 m 0,0 0.73,-2.04 m 0,0 0.37,-2.14 m 0,0 -0.01,-2.17 m 0,0 -0.39,-2.13 m 0,0 -0.76,-2.04 m 0,0 -1.09,-1.87 m 0,0 -1.41,-1.66 m 0,0 -1.67,-1.38 m 0,0 -1.89,-1.07 m 0,0 -2.04,-0.73 m 0,0 -2.14,-0.36 m 0,0 -2.17,0.02 m 0,0 -2.13,0.39 m 0,0 -2.04,0.76 m 0,0 -1.87,1.1 m 0,0 -1.65,1.41 m 0,0 -1.38,1.68 m 0,0 -1.06,1.88 m 0,0 -0.73,2.05 m 0,0 -0.35,2.14 m 0,0 0.02,2.17 m 0,0 0.4,2.13 m 0,0 0.76,2.04 m 0,0 1.11,1.86"
       id="path36"
       transform="matrix(1.4313263,0,0,1.4313263,-136.13933,-194.91708)" />
    <path
       inkscape:connector-curvature="0"
       style="fill:#000000;fill-opacity:1;stroke:#000000;stroke-width:0.2;stroke-linecap:round;stroke-linejoin:round;stroke-miterlimit:4;stroke-dasharray:none;stroke-opacity:1;filter:url(#filter4084)"
       d="m 253.60013,446.74274 -43.28,38.58"
       id="path38"
       transform="matrix(1.4313263,0,0,1.4313263,-136.13933,-194.91708)" />
    <path
       inkscape:connector-curvature="0"
       style="fill:#000000;fill-opacity:1;stroke:#000000;stroke-width:0.2;stroke-linecap:round;stroke-linejoin:round;stroke-miterlimit:4;stroke-dasharray:none;stroke-opacity:1;filter:url(#filter4084)"
       d="m 210.32013,485.32274 -7.83,57.85"
       id="path40"
       transform="matrix(1.4313263,0,0,1.4313263,-136.13933,-194.91708)" />
    <path
       inkscape:connector-curvature="0"
       style="fill:#000000;fill-opacity:1;stroke:#000000;stroke-width:0.2;stroke-linecap:round;stroke-linejoin:round;stroke-miterlimit:4;stroke-dasharray:none;stroke-opacity:1;filter:url(#filter4084)"
       d="m 209.09013,385.56274 1.24,-2.42 m 0,0 0.9,-2.55 m 0,0 0.55,-2.66 m 0,0 0.18,-2.7 m 0,0 -0.19,-2.71 m 0,0 -0.55,-2.65 m 0,0 -0.9,-2.56 m 0,0 -1.24,-2.41 m 0,0 -1.56,-2.22 m 0,0 -1.84,-1.98 m 0,0 -2.1,-1.72 m 0,0 -2.31,-1.43 m 0,0 -2.48,-1.09"
       id="path42"
       transform="matrix(1.4313263,0,0,1.4313263,-136.13933,-194.91708)" />
    <path
       inkscape:connector-curvature="0"
       style="fill:#000000;fill-opacity:1;stroke:#000000;stroke-width:0.2;stroke-linecap:round;stroke-linejoin:round;stroke-miterlimit:4;stroke-dasharray:none;stroke-opacity:1;filter:url(#filter4084)"
       d="m 218.69013,423.52274 2.78,-0.24 m 0,0 2.72,-0.61 m 0,0 2.61,-0.99 m 0,0 2.45,-1.34 m 0,0 2.24,-1.66 m 0,0 1.99,-1.96 m 0,0 1.7,-2.22 m 0,0 1.38,-2.42 m 0,0 1.02,-2.6 m 0,0 0.66,-2.71 m 0,0 0.28,-2.78 m 0,0 -0.12,-2.79 m 0,0 -0.49,-2.74 m 0,0 -0.87,-2.65 m 0,0 -1.23,-2.51 m 0,0 -1.56,-2.31 m 0,0 -1.87,-2.07 m 0,0 -2.14,-1.8 m 0,0 -2.36,-1.48 m 0,0 -2.55,-1.14 m 0,0 -2.68,-0.78 m 0,0 -2.76,-0.39 m 0,0 -2.79,-0.02 m 0,0 -2.77,0.38 m 0,0 -2.69,0.75 m 0,0 -2.55,1.12"
       id="path44"
       transform="matrix(1.4313263,0,0,1.4313263,-136.13933,-194.91708)" />
    <path
       inkscape:connector-curvature="0"
       style="fill:#000000;fill-opacity:1;stroke:#000000;stroke-width:0.2;stroke-linecap:round;stroke-linejoin:round;stroke-miterlimit:4;stroke-dasharray:none;stroke-opacity:1;filter:url(#filter4084)"
       d="m 218.69013,423.52274 -7.95,58.68"
       id="path46"
       transform="matrix(1.4313263,0,0,1.4313263,-136.13933,-194.91708)" />
    <path
       inkscape:connector-curvature="0"
       style="fill:#000000;fill-opacity:1;stroke:#000000;stroke-width:0.2;stroke-linecap:round;stroke-linejoin:round;stroke-miterlimit:4;stroke-dasharray:none;stroke-opacity:1;filter:url(#filter4084)"
       d="m 189.53013,418.87274 -29.8,-30.24"
       id="path48"
       transform="matrix(1.4313263,0,0,1.4313263,-136.13933,-194.91708)" />
    <path
       inkscape:connector-curvature="0"
       style="fill:#000000;fill-opacity:1;stroke:#000000;stroke-width:0.2;stroke-linecap:round;stroke-linejoin:round;stroke-miterlimit:4;stroke-dasharray:none;stroke-opacity:1;filter:url(#filter4084)"
       d="m 159.73013,388.63274 1.12,-1.64 m 0,0 0.82,-1.82 m 0,0 0.5,-1.93 m 0,0 0.15,-1.98 m 0,0 -0.2,-1.99 m 0,0 -0.53,-1.91 m 0,0 -0.87,-1.8 m 0,0 -1.16,-1.62 m 0,0 -1.42,-1.39 m 0,0 -1.65,-1.12 m 0,0 -1.81,-0.82 m 0,0 -1.93,-0.5"
       id="path50"
       transform="matrix(1.4313263,0,0,1.4313263,-136.13933,-194.91708)" />
    <path
       inkscape:connector-curvature="0"
       style="fill:#000000;fill-opacity:1;stroke:#000000;stroke-width:0.2;stroke-linecap:round;stroke-linejoin:round;stroke-miterlimit:4;stroke-dasharray:none;stroke-opacity:1;filter:url(#filter4084)"
       d="m 180.72013,358.75274 -2.1,1.65 m 0,0 -1.87,1.93 m 0,0 -1.59,2.16 m 0,0 -1.29,2.35 m 0,0 -0.96,2.5 m 0,0 -0.62,2.61 m 0,0 -0.26,2.67 m 0,0 0.09,2.68 m 0,0 0.46,2.65 m 0,0 0.81,2.55 m 0,0 1.14,2.43 m 0,0 1.45,2.25 m 0,0 1.75,2.04 m 0,0 2,1.78 m 0,0 2.22,1.5 m 0,0 2.41,1.19 m 0,0 2.54,0.86 m 0,0 2.63,0.51"
       id="path52"
       transform="matrix(1.4313263,0,0,1.4313263,-136.13933,-194.91708)" />
    <path
       inkscape:connector-curvature="0"
       style="fill:#000000;fill-opacity:1;stroke:#000000;stroke-width:0.2;stroke-linecap:round;stroke-linejoin:round;stroke-miterlimit:4;stroke-dasharray:none;stroke-opacity:1;filter:url(#filter4084)"
       d="m 189.53013,395.06274 v 23.81"
       id="path54"
       transform="matrix(1.4313263,0,0,1.4313263,-136.13933,-194.91708)" />
    <path
       inkscape:connector-curvature="0"
       style="fill:#000000;fill-opacity:1;stroke:#000000;stroke-width:0.2;stroke-linecap:round;stroke-linejoin:round;stroke-miterlimit:4;stroke-dasharray:none;stroke-opacity:1;filter:url(#filter4084)"
       d="m 139.58013,379.84274 -4.44,4.19 m 0,0 -4.15,4.47 m 0,0 -3.86,4.73 m 0,0 -3.53,4.97 m 0,0 -3.21,5.19 m 0,0 -2.85,5.39 m 0,0 -2.5,5.57 m 0,0 -2.13,5.72 m 0,0 -1.76,5.84 m 0,0 -1.36,5.95 m 0,0 -0.98,6.02 m 0,0 -0.58,6.08 m 0,0 -0.18,6.1 m 0,0 0.21,6.09 m 0,0 0.62,6.07 m 0,0 1.01,6.02 m 0,0 1.4,5.94 m 0,0 1.78,5.84 m 0,0 2.16,5.7 m 0,0 2.53,5.55 m 0,0 2.89,5.38 m 0,0 3.23,5.17 m 0,0 3.57,4.96 m 0,0 3.87,4.71 m 0,0 4.18,4.44 m 0,0 4.46,4.17 m 0,0 4.73,3.86 m 0,0 4.96,3.55 m 0,0 5.19,3.21 m 0,0 5.38,2.87 m 0,0 5.56,2.52 m 0,0 5.71,2.14 m 0,0 5.84,1.77 m 0,0 5.95,1.38"
       id="path84"
       transform="matrix(1.4313263,0,0,1.4313263,-136.13933,-194.91708)" />
    <path
       inkscape:connector-curvature="0"
       style="fill:#000000;fill-opacity:1;stroke:#000000;stroke-width:0.2;stroke-linecap:round;stroke-linejoin:round;stroke-miterlimit:4;stroke-dasharray:none;stroke-opacity:1;filter:url(#filter4084)"
       d="m 194.54013,542.92274 3.56,0.2"
       id="path86"
       transform="matrix(1.4313263,0,0,1.4313263,-136.13933,-194.91708)" />
    <path
       inkscape:connector-curvature="0"
       style="fill:#000000;fill-opacity:1;stroke:#000000;stroke-width:0.2;stroke-linecap:round;stroke-linejoin:round;stroke-miterlimit:4;stroke-dasharray:none;stroke-opacity:1;filter:url(#filter4084)"
       d="m 202.49013,543.17274 6.01,-0.26 m 0,0 5.98,-0.65 m 0,0 5.93,-1.03 m 0,0 5.85,-1.42 m 0,0 5.75,-1.78 m 0,0 5.62,-2.16 m 0,0 5.47,-2.51 m 0,0 5.29,-2.86 m 0,0 5.1,-3.19 m 0,0 4.89,-3.51 m 0,0 4.64,-3.83 m 0,0 4.4,-4.11 m 0,0 4.11,-4.39 m 0,0 3.83,-4.64 m 0,0 3.52,-4.88 m 0,0 3.2,-5.1 m 0,0 2.86,-5.29 m 0,0 2.52,-5.47 m 0,0 2.16,-5.62 m 0,0 1.79,-5.74 m 0,0 1.42,-5.85 m 0,0 1.04,-5.93 m 0,0 0.65,-5.98 m 0,0 0.27,-6.01 m 0,0 -0.12,-6.02 m 0,0 -0.5,-5.99 m 0,0 -0.9,-5.95 m 0,0 -1.27,-5.89 m 0,0 -1.65,-5.78 m 0,0 -2.02,-5.67 m 0,0 -2.38,-5.53 m 0,0 -2.73,-5.36 m 0,0 -3.07,-5.18 m 0,0 -3.39,-4.96 m 0,0 -3.71,-4.74 m 0,0 -4.01,-4.49 m 0,0 -4.29,-4.22 m 0,0 -4.55,-3.94 m 0,0 -4.8,-3.63 m 0,0 -5.02,-3.32 m 0,0 -5.22,-2.99 m 0,0 -5.41,-2.65 m 0,0 -5.56,-2.29 m 0,0 -5.7,-1.93 m 0,0 -5.81,-1.56 m 0,0 -5.9,-1.18 m 0,0 -5.97,-0.79 m 0,0 -6,-0.42 m 0,0 -6.02,-0.02"
       id="path88"
       transform="matrix(1.4313263,0,0,1.4313263,-136.13933,-194.91708)" />
    <path
       inkscape:connector-curvature="0"
       style="fill:#000000;fill-opacity:1;stroke:#000000;stroke-width:0.2;stroke-linecap:round;stroke-linejoin:round;stroke-miterlimit:4;stroke-dasharray:none;stroke-opacity:1;filter:url(#filter4084)"
       d="m 180.72013,358.75274 -5.86,1.53 m 0,0 -5.76,1.92 m 0,0 -5.62,2.28 m 0,0 -5.46,2.64 m 0,0 -5.27,2.99"
       id="path90"
       transform="matrix(1.4313263,0,0,1.4313263,-136.13933,-194.91708)" />
  </g>
</svg>
