<?xml version="1.0" encoding="UTF-8" standalone="no"?>
<!-- Created with Inkscape (http://www.inkscape.org/) -->

<svg
   xmlns:osb="http://www.openswatchbook.org/uri/2009/osb"
   xmlns:dc="http://purl.org/dc/elements/1.1/"
   xmlns:cc="http://creativecommons.org/ns#"
   xmlns:rdf="http://www.w3.org/1999/02/22-rdf-syntax-ns#"
   xmlns:svg="http://www.w3.org/2000/svg"
   xmlns="http://www.w3.org/2000/svg"
   xmlns:sodipodi="http://sodipodi.sourceforge.net/DTD/sodipodi-0.dtd"
   xmlns:inkscape="http://www.inkscape.org/namespaces/inkscape"
   version="1.1"
   id="svg4536"
   width="500"
   height="500"
   viewBox="0 0 500 500"
   sodipodi:docname="logo-text.svg"
   inkscape:version="0.92.4 (5da689c313, 2019-01-14)"
   inkscape:export-filename="C:\Users\Fernando Paiva\Desktop\bitmap.png"
   inkscape:export-xdpi="300"
   inkscape:export-ydpi="300">
  <metadata
     id="metadata4542">
    <rdf:RDF>
      <cc:Work
         rdf:about="">
        <dc:format>image/svg+xml</dc:format>
        <dc:type
           rdf:resource="http://purl.org/dc/dcmitype/StillImage" />
        <dc:title />
      </cc:Work>
    </rdf:RDF>
  </metadata>
  <defs
     id="defs4540">
    <linearGradient
       id="linearGradient5565"
       osb:paint="solid">
      <stop
         style="stop-color:#ffcd04;stop-opacity:1;"
         offset="0"
         id="stop5563" />
    </linearGradient>
  </defs>
  <sodipodi:namedview
     pagecolor="#ffffff"
     bordercolor="#666666"
     borderopacity="1"
     objecttolerance="10"
     gridtolerance="10"
     guidetolerance="10"
     inkscape:pageopacity="0"
     inkscape:pageshadow="2"
     inkscape:window-width="1920"
     inkscape:window-height="1027"
     id="namedview4538"
     showgrid="false"
     inkscape:zoom="2"
     inkscape:cx="100.13775"
     inkscape:cy="224.00764"
     inkscape:window-x="-8"
     inkscape:window-y="22"
     inkscape:window-maximized="1"
     inkscape:current-layer="layer2"
     inkscape:pagecheckerboard="true" />
  <g
     inkscape:groupmode="layer"
     id="layer2"
     inkscape:label="Texto"
     style="display:inline"
     sodipodi:insensitive="true">
    <flowRoot
       xml:space="preserve"
       id="flowRoot4557"
       style="font-style:normal;font-weight:normal;font-size:64px;line-height:1.25;font-family:sans-serif;letter-spacing:0px;word-spacing:0px;fill:#000000;fill-opacity:1;stroke:none"
       transform="translate(48.45198,-50.945959)"><flowRegion
         id="flowRegion4559"><rect
           id="rect4561"
           width="381.13055"
           height="80.610176"
           x="107.48023"
           y="268.06897" /></flowRegion><flowPara
         id="flowPara4563"
         style="font-style:normal;font-variant:normal;font-weight:normal;font-stretch:normal;font-family:sans-serif;-inkscape-font-specification:sans-serif">Uirapuru</flowPara></flowRoot>  </g>
  <g
     inkscape:groupmode="layer"
     id="layer1"
     inkscape:label="Cores"
     style="display:inline"
     sodipodi:insensitive="true">
    <path
       style="opacity:1;fill:#000000;fill-opacity:1;stroke:none;stroke-width:0.01213887;stroke-miterlimit:4;stroke-dasharray:none;stroke-opacity:1;paint-order:normal"
       d="m 98.06279,269.96919 c -10.785588,-4.86662 -14.293516,-6.49974 -14.293516,-6.65437 0,-0.72597 8.032014,-37.66102 8.238912,-37.88646 0.04192,-0.0457 2.638147,6.37276 5.769404,14.26318 3.13125,7.89042 7.7334,19.35728 10.22699,25.48191 2.4936,6.12463 4.53381,11.16378 4.53381,11.19811 0,0.0343 -0.041,0.059 -0.091,0.0548 -0.0501,-0.004 -6.52312,-2.90992 -14.38456,-6.45712 z"
       id="path1102"
       inkscape:connector-curvature="0" />
    <path
       style="opacity:1;fill:#ffcd04;fill-opacity:1;stroke:none;stroke-width:0.00606944;stroke-miterlimit:4;stroke-dasharray:none;stroke-opacity:1;paint-order:normal"
       d="m 66.613464,276.5345 c 0.04888,-0.047 3.895226,-2.9822 8.547434,-6.52259 l 8.45856,-6.43707 0.190383,0.0811 c 0.421835,0.17977 28.541199,12.85949 28.625689,12.90803 0.0511,0.0293 -10.00436,0.0531 -22.90995,0.0541 -19.785985,0.002 -22.988568,-0.0101 -22.912116,-0.0837 z"
       id="path1104"
       inkscape:connector-curvature="0" />
    <path
       style="opacity:1;fill:#ffcd04;fill-opacity:1;stroke:none;stroke-width:0.00606944;stroke-miterlimit:4;stroke-dasharray:none;stroke-opacity:1;paint-order:normal"
       d="m 108.32248,265.67985 c -3.56806,-8.75351 -4.41487,-10.88234 -4.33353,-10.8942 1.16989,-0.17064 30.08798,-3.90115 30.14056,-3.88821 0.0414,0.0102 -1.11516,1.44152 -2.57011,3.18075 -1.45495,1.73924 -6.27383,7.50899 -10.70864,12.82168 -4.43479,5.3127 -8.07011,9.65945 -8.07846,9.65945 -0.008,0 -2.01077,-4.89576 -4.44982,-10.87947 z"
       id="path1106"
       inkscape:connector-curvature="0" />
    <path
       style="opacity:1;fill:#ff0000;fill-opacity:1;stroke:none;stroke-width:0.00606944;stroke-miterlimit:4;stroke-dasharray:none;stroke-opacity:1;paint-order:normal"
       d="m 83.590472,263.17621 c -0.08645,-0.2715 -6.423845,-30.87697 -6.405197,-30.93291 0.01109,-0.0333 2.330982,2.83281 5.155302,6.36911 l 5.135123,6.42965 -1.898061,9.00638 c -1.043932,4.95351 -1.909411,9.06101 -1.923287,9.12777 l -0.02523,0.12139 z"
       id="path1108"
       inkscape:connector-curvature="0" />
    <path
       style="opacity:1;fill:#ff0000;fill-opacity:1;stroke:none;stroke-width:0.00606944;stroke-miterlimit:4;stroke-dasharray:none;stroke-opacity:1;paint-order:normal"
       d="m 134.93586,258.23177 c -3.16409,-0.59324 -5.76421,-1.08993 -5.77805,-1.10377 -0.0263,-0.0263 5.11494,-6.20299 5.18088,-6.22425 0.0366,-0.0118 6.51144,8.25295 6.55237,8.36365 0.0111,0.0301 -0.0298,0.0521 -0.091,0.0488 -0.0612,-0.003 -2.70007,-0.49125 -5.86416,-1.08448 z"
       id="path1110"
       inkscape:connector-curvature="0" />
  </g>
  <flowRoot
     xml:space="preserve"
     id="flowRoot5543"
     style="fill:black;fill-opacity:1;stroke:none;font-family:sans-serif;font-style:normal;font-weight:normal;font-size:40px;line-height:1.25;letter-spacing:0px;word-spacing:0px"><flowRegion
       id="flowRegion5545"><rect
         id="rect5547"
         width="294.86353"
         height="81.317276"
         x="126.57211"
         y="285.03955" /></flowRegion><flowPara
       id="flowPara5549" /></flowRoot></svg>
